<svg width="224" height="95" viewBox="0 0 224 95" fill="none" xmlns="http://www.w3.org/2000/svg">
<path d="M28.9859 69.184C28.3619 70.864 27.6419 71.92 26.8259 72.352C26.0099 72.784 25.2659 73 24.5939 73C23.9219 73 23.4179 72.808 23.0819 72.424C22.7939 72.04 22.6499 71.584 22.6499 71.056C22.6499 70.48 22.7699 69.88 23.0099 69.256L39.9299 23.68C40.1699 23.104 40.6499 22.672 41.3699 22.384C42.1379 22.096 42.9779 21.952 43.8899 21.952C44.8499 21.952 45.7619 22.12 46.6259 22.456C47.5379 22.744 48.0899 23.224 48.2819 23.896L64.7699 69.544C64.8179 69.736 64.8419 69.928 64.8419 70.12C64.8899 70.264 64.9139 70.432 64.9139 70.624C64.9139 71.248 64.6979 71.8 64.2659 72.28C63.8819 72.76 63.1619 73 62.1059 73C61.6739 73 61.0979 72.928 60.3779 72.784C59.7059 72.592 59.0339 72.232 58.3619 71.704C57.6899 71.128 57.1379 70.288 56.7059 69.184L52.8899 59.32H32.6579L28.9859 69.184ZM43.0979 30.448H42.6659L33.8099 55.576H51.8099L43.0979 30.448Z" fill="#453929"/>
<path d="M95.9594 21.952C98.1674 21.952 99.2714 23.152 99.2714 25.552V69.4C99.2714 70.744 99.0074 71.68 98.4794 72.208C97.9994 72.736 97.2074 73 96.1034 73C93.0314 73 91.4954 71.152 91.4954 67.456V48.592H68.0234V68.32C68.0234 70.048 67.6394 71.272 66.8714 71.992C66.1514 72.664 65.0474 73 63.5594 73C61.3514 73 60.2474 71.8 60.2474 69.4V25.552C60.2474 24.208 60.4874 23.272 60.9674 22.744C61.4954 22.216 62.3114 21.952 63.4154 21.952C66.4874 21.952 68.0234 23.8 68.0234 27.496V44.632H91.4954V26.632C91.4954 24.904 91.8554 23.704 92.5754 23.032C93.3434 22.312 94.4714 21.952 95.9594 21.952Z" fill="#453929"/>
<path d="M115.053 73C109.965 73 105.933 71.536 102.957 68.608C100.029 65.632 98.5649 61.072 98.5649 54.928C98.5649 50.704 99.2609 47.272 100.653 44.632C102.045 41.992 103.965 40.048 106.413 38.8C108.909 37.504 111.789 36.856 115.053 36.856C119.997 36.856 123.981 38.296 127.005 41.176C130.029 44.056 131.541 48.64 131.541 54.928C131.541 61.072 130.077 65.632 127.149 68.608C124.221 71.536 120.189 73 115.053 73ZM115.053 70.12C116.781 70.12 118.293 69.712 119.589 68.896C120.885 68.08 121.893 66.568 122.613 64.36C123.381 62.152 123.765 59.008 123.765 54.928C123.765 50.848 123.381 47.728 122.613 45.568C121.845 43.36 120.789 41.848 119.445 41.032C118.149 40.168 116.685 39.736 115.053 39.736C113.469 39.736 112.005 40.168 110.661 41.032C109.365 41.848 108.309 43.36 107.493 45.568C106.725 47.728 106.341 50.848 106.341 54.928C106.341 58.96 106.701 62.08 107.421 64.288C108.189 66.496 109.221 68.032 110.517 68.896C111.861 69.712 113.373 70.12 115.053 70.12Z" fill="#453929"/>
<path d="M163.254 73C160.374 73 158.142 72.496 156.558 71.488C154.974 70.48 153.87 69.136 153.246 67.456C152.622 65.728 152.31 63.784 152.31 61.624V40.384H147.99C146.742 40.384 146.118 39.832 146.118 38.728C146.118 38.104 146.43 37.672 147.054 37.432C147.678 37.192 148.47 36.856 149.43 36.424C150.438 35.944 151.494 35.104 152.598 33.904C153.75 32.704 154.542 31.648 154.974 30.736C155.454 29.824 155.862 29.104 156.198 28.576C156.582 28.048 157.134 27.784 157.854 27.784C158.718 27.784 159.246 28.096 159.438 28.72C159.678 29.344 159.798 30.352 159.798 31.744V36.856H168.51C169.038 36.856 169.446 37.048 169.734 37.432C170.07 37.768 170.238 38.176 170.238 38.656C170.238 39.088 170.07 39.496 169.734 39.88C169.446 40.216 169.038 40.384 168.51 40.384H159.798V63.28C159.798 65.776 160.254 67.504 161.166 68.464C162.126 69.376 163.11 69.832 164.118 69.832C165.558 69.832 166.662 69.496 167.43 68.824C168.198 68.152 168.798 67.36 169.23 66.448C169.71 65.536 170.166 64.744 170.598 64.072C171.078 63.4 171.726 63.064 172.542 63.064C173.79 63.064 174.414 63.64 174.414 64.792C174.414 65.176 174.294 65.656 174.054 66.232C173.814 66.808 173.574 67.24 173.334 67.528C172.086 69.4 170.574 70.792 168.798 71.704C167.022 72.568 165.174 73 163.254 73Z" fill="#453929"/>
<path d="M194.558 66.16C192.974 68.512 191.15 70.24 189.086 71.344C187.07 72.448 184.67 73 181.886 73C178.238 73 175.502 72.112 173.678 70.336C171.902 68.512 171.014 66.16 171.014 63.28C171.014 61.744 171.278 60.232 171.806 58.744C172.334 57.208 173.27 55.84 174.614 54.64C175.958 53.44 177.806 52.48 180.158 51.76C182.51 51.04 185.51 50.68 189.158 50.68H194.414V48.664C194.414 45.352 193.838 43.048 192.686 41.752C191.582 40.408 189.758 39.736 187.214 39.736C185.726 39.736 184.454 40.048 183.398 40.672C182.39 41.296 181.55 41.992 180.878 42.76C180.158 43.528 179.438 44.152 178.718 44.632C177.998 45.064 177.254 45.28 176.486 45.28C175.622 45.28 174.974 45.04 174.542 44.56C174.158 44.032 173.966 43.456 173.966 42.832C173.966 41.824 174.35 41.032 175.118 40.456C175.886 39.832 176.822 39.28 177.926 38.8C179.558 38.128 181.358 37.648 183.326 37.36C185.342 37.024 187.118 36.856 188.654 36.856C192.206 36.856 194.942 37.36 196.862 38.368C198.782 39.328 200.102 40.768 200.822 42.688C201.59 44.608 201.974 47.008 201.974 49.888V69.616C201.974 70.672 201.782 71.512 201.398 72.136C201.062 72.712 200.318 73 199.166 73C197.582 73 196.454 72.472 195.782 71.416C195.11 70.312 194.774 68.584 194.774 66.232L194.558 66.16ZM190.31 53.704C187.238 53.704 184.838 54.088 183.11 54.856C181.382 55.624 180.182 56.656 179.51 57.952C178.838 59.248 178.502 60.688 178.502 62.272C178.502 64.48 179.078 66.016 180.23 66.88C181.382 67.744 182.894 68.176 184.766 68.176C185.966 68.176 187.31 67.888 188.798 67.312C190.334 66.688 191.654 65.752 192.758 64.504C193.91 63.256 194.486 61.672 194.486 59.752V53.704H190.31Z" fill="#453929"/>
<path d="M130.738 70.8429V48.1372C131.605 39.5439 140.553 36.3931 152.513 37.0144C152.766 45.9945 147.791 51.6088 138.691 51.6088V70.8429C138.691 71.9475 137.796 72.8429 136.691 72.8429L132.738 72.8429C131.633 72.8429 130.738 71.9475 130.738 70.8429Z" fill="#709A4F"/>
</svg>
