<svg width="223" height="95" viewBox="0 0 223 95" fill="none" xmlns="http://www.w3.org/2000/svg">
<path d="M28.0118 69.184C27.3878 70.864 26.6678 71.92 25.8518 72.352C25.0358 72.784 24.2918 73 23.6198 73C22.9478 73 22.4438 72.808 22.1078 72.424C21.8198 72.04 21.6758 71.584 21.6758 71.056C21.6758 70.48 21.7958 69.88 22.0358 69.256L38.9558 23.68C39.1958 23.104 39.6758 22.672 40.3958 22.384C41.1638 22.096 42.0038 21.952 42.9158 21.952C43.8758 21.952 44.7878 22.12 45.6518 22.456C46.5638 22.744 47.1158 23.224 47.3078 23.896L63.7958 69.544C63.8438 69.736 63.8678 69.928 63.8678 70.12C63.9158 70.264 63.9398 70.432 63.9398 70.624C63.9398 71.248 63.7238 71.8 63.2918 72.28C62.9078 72.76 62.1878 73 61.1318 73C60.6998 73 60.1238 72.928 59.4038 72.784C58.7318 72.592 58.0598 72.232 57.3878 71.704C56.7158 71.128 56.1638 70.288 55.7318 69.184L51.9158 59.32H31.6838L28.0118 69.184ZM42.1238 30.448H41.6918L32.8358 55.576H50.8358L42.1238 30.448Z" fill="black"/>
<path d="M94.9853 21.952C97.1933 21.952 98.2973 23.152 98.2973 25.552V69.4C98.2973 70.744 98.0333 71.68 97.5053 72.208C97.0253 72.736 96.2333 73 95.1293 73C92.0573 73 90.5213 71.152 90.5213 67.456V48.592H67.0493V68.32C67.0493 70.048 66.6653 71.272 65.8973 71.992C65.1773 72.664 64.0733 73 62.5853 73C60.3773 73 59.2733 71.8 59.2733 69.4V25.552C59.2733 24.208 59.5133 23.272 59.9933 22.744C60.5213 22.216 61.3373 21.952 62.4413 21.952C65.5133 21.952 67.0493 23.8 67.0493 27.496V44.632H90.5213V26.632C90.5213 24.904 90.8813 23.704 91.6013 23.032C92.3693 22.312 93.4973 21.952 94.9853 21.952Z" fill="black"/>
<path d="M114.079 73C108.991 73 104.959 71.536 101.983 68.608C99.0548 65.632 97.5908 61.072 97.5908 54.928C97.5908 50.704 98.2868 47.272 99.6788 44.632C101.071 41.992 102.991 40.048 105.439 38.8C107.935 37.504 110.815 36.856 114.079 36.856C119.023 36.856 123.007 38.296 126.031 41.176C129.055 44.056 130.567 48.64 130.567 54.928C130.567 61.072 129.103 65.632 126.175 68.608C123.247 71.536 119.215 73 114.079 73ZM114.079 70.12C115.807 70.12 117.319 69.712 118.615 68.896C119.911 68.08 120.919 66.568 121.639 64.36C122.407 62.152 122.791 59.008 122.791 54.928C122.791 50.848 122.407 47.728 121.639 45.568C120.871 43.36 119.815 41.848 118.471 41.032C117.175 40.168 115.711 39.736 114.079 39.736C112.495 39.736 111.031 40.168 109.687 41.032C108.391 41.848 107.335 43.36 106.519 45.568C105.751 47.728 105.367 50.848 105.367 54.928C105.367 58.96 105.727 62.08 106.447 64.288C107.215 66.496 108.247 68.032 109.543 68.896C110.887 69.712 112.399 70.12 114.079 70.12Z" fill="black"/>
<path d="M162.28 73C159.4 73 157.168 72.496 155.584 71.488C154 70.48 152.896 69.136 152.272 67.456C151.648 65.728 151.336 63.784 151.336 61.624V40.384H147.016C145.768 40.384 145.144 39.832 145.144 38.728C145.144 38.104 145.456 37.672 146.08 37.432C146.704 37.192 147.496 36.856 148.456 36.424C149.464 35.944 150.52 35.104 151.624 33.904C152.776 32.704 153.568 31.648 154 30.736C154.48 29.824 154.888 29.104 155.224 28.576C155.608 28.048 156.16 27.784 156.88 27.784C157.744 27.784 158.272 28.096 158.464 28.72C158.704 29.344 158.824 30.352 158.824 31.744V36.856H167.536C168.064 36.856 168.472 37.048 168.76 37.432C169.096 37.768 169.264 38.176 169.264 38.656C169.264 39.088 169.096 39.496 168.76 39.88C168.472 40.216 168.064 40.384 167.536 40.384H158.824V63.28C158.824 65.776 159.28 67.504 160.192 68.464C161.152 69.376 162.136 69.832 163.144 69.832C164.584 69.832 165.688 69.496 166.456 68.824C167.224 68.152 167.824 67.36 168.256 66.448C168.736 65.536 169.192 64.744 169.624 64.072C170.104 63.4 170.752 63.064 171.568 63.064C172.816 63.064 173.44 63.64 173.44 64.792C173.44 65.176 173.32 65.656 173.08 66.232C172.84 66.808 172.6 67.24 172.36 67.528C171.112 69.4 169.6 70.792 167.824 71.704C166.048 72.568 164.2 73 162.28 73Z" fill="black"/>
<path d="M193.584 66.16C192 68.512 190.176 70.24 188.112 71.344C186.096 72.448 183.696 73 180.912 73C177.264 73 174.528 72.112 172.704 70.336C170.928 68.512 170.04 66.16 170.04 63.28C170.04 61.744 170.304 60.232 170.832 58.744C171.36 57.208 172.296 55.84 173.64 54.64C174.984 53.44 176.832 52.48 179.184 51.76C181.536 51.04 184.536 50.68 188.184 50.68H193.44V48.664C193.44 45.352 192.864 43.048 191.712 41.752C190.608 40.408 188.784 39.736 186.24 39.736C184.752 39.736 183.48 40.048 182.424 40.672C181.416 41.296 180.576 41.992 179.904 42.76C179.184 43.528 178.464 44.152 177.744 44.632C177.024 45.064 176.28 45.28 175.512 45.28C174.648 45.28 174 45.04 173.568 44.56C173.184 44.032 172.992 43.456 172.992 42.832C172.992 41.824 173.376 41.032 174.144 40.456C174.912 39.832 175.848 39.28 176.952 38.8C178.584 38.128 180.384 37.648 182.352 37.36C184.368 37.024 186.144 36.856 187.68 36.856C191.232 36.856 193.968 37.36 195.888 38.368C197.808 39.328 199.128 40.768 199.848 42.688C200.616 44.608 201 47.008 201 49.888V69.616C201 70.672 200.808 71.512 200.424 72.136C200.088 72.712 199.344 73 198.192 73C196.608 73 195.48 72.472 194.808 71.416C194.136 70.312 193.8 68.584 193.8 66.232L193.584 66.16ZM189.336 53.704C186.264 53.704 183.864 54.088 182.136 54.856C180.408 55.624 179.208 56.656 178.536 57.952C177.864 59.248 177.528 60.688 177.528 62.272C177.528 64.48 178.104 66.016 179.256 66.88C180.408 67.744 181.92 68.176 183.792 68.176C184.992 68.176 186.336 67.888 187.824 67.312C189.36 66.688 190.68 65.752 191.784 64.504C192.936 63.256 193.512 61.672 193.512 59.752V53.704H189.336Z" fill="black"/>
<path d="M129.764 70.8429V48.1372C130.631 39.5439 139.579 36.3931 151.539 37.0144C151.792 45.9945 146.817 51.6088 137.717 51.6088V70.8429C137.717 71.9475 136.821 72.8429 135.717 72.8429L131.764 72.8429C130.659 72.8429 129.764 71.9475 129.764 70.8429Z" fill="#709A4F"/>
</svg>
