<svg width="119" height="50" viewBox="0 0 119 50" fill="none" xmlns="http://www.w3.org/2000/svg">
<path d="M15.7171 36.4127C15.3886 37.2969 15.0097 37.8527 14.5802 38.08C14.1507 38.3074 13.7592 38.4211 13.4055 38.4211C13.0518 38.4211 12.7865 38.32 12.6097 38.1179C12.4581 37.9158 12.3823 37.6758 12.3823 37.3979C12.3823 37.0948 12.4455 36.779 12.5718 36.4506L21.4771 12.4632C21.6034 12.16 21.856 11.9327 22.235 11.7811C22.6392 11.6295 23.0813 11.5537 23.5613 11.5537C24.0665 11.5537 24.5465 11.6421 25.0013 11.819C25.4813 11.9706 25.7718 12.2232 25.8729 12.5769L34.5507 36.6021C34.576 36.7032 34.5886 36.8042 34.5886 36.9053C34.6139 36.9811 34.6265 37.0695 34.6265 37.1706C34.6265 37.499 34.5129 37.7895 34.2855 38.0421C34.0834 38.2948 33.7044 38.4211 33.1486 38.4211C32.9213 38.4211 32.6181 38.3832 32.2392 38.3074C31.8855 38.2063 31.5318 38.0169 31.1781 37.739C30.8244 37.4358 30.5339 36.9937 30.3065 36.4127L28.2981 31.2211H17.6497L15.7171 36.4127ZM23.1444 16.0253H22.9171L18.256 29.2506H27.7297L23.1444 16.0253Z" fill="#453929"/>
<path d="M50.9663 11.5537C52.1284 11.5537 52.7094 12.1853 52.7094 13.4484V36.5263C52.7094 37.2337 52.5705 37.7263 52.2926 38.0042C52.04 38.2821 51.6231 38.4211 51.0421 38.4211C49.4252 38.4211 48.6168 37.4485 48.6168 35.5032V25.5748H36.2631V35.9579C36.2631 36.8674 36.061 37.5116 35.6568 37.8906C35.2779 38.2442 34.6968 38.4211 33.9136 38.4211C32.7515 38.4211 32.1705 37.7895 32.1705 36.5263V13.4484C32.1705 12.7411 32.2968 12.2484 32.5494 11.9706C32.8273 11.6927 33.2568 11.5537 33.8379 11.5537C35.4547 11.5537 36.2631 12.5263 36.2631 14.4716V23.4906H48.6168V14.0169C48.6168 13.1074 48.8063 12.4758 49.1852 12.1221C49.5894 11.7432 50.1831 11.5537 50.9663 11.5537Z" fill="#453929"/>
<path d="M61.0155 38.4211C58.3376 38.4211 56.2155 37.6506 54.6492 36.1095C53.1081 34.5432 52.3376 32.1432 52.3376 28.9095C52.3376 26.6863 52.7039 24.88 53.4365 23.4906C54.1692 22.1011 55.1797 21.0779 56.4681 20.4211C57.7818 19.739 59.2976 19.3979 61.0155 19.3979C63.6176 19.3979 65.7144 20.1558 67.306 21.6716C68.8976 23.1874 69.6934 25.6 69.6934 28.9095C69.6934 32.1432 68.9229 34.5432 67.3818 36.1095C65.8407 37.6506 63.7186 38.4211 61.0155 38.4211ZM61.0155 36.9053C61.925 36.9053 62.7207 36.6906 63.4029 36.2611C64.085 35.8316 64.6155 35.0358 64.9944 33.8737C65.3986 32.7116 65.6007 31.0569 65.6007 28.9095C65.6007 26.7621 65.3986 25.12 64.9944 23.9832C64.5902 22.8211 64.0344 22.0253 63.3271 21.5958C62.645 21.1411 61.8744 20.9137 61.0155 20.9137C60.1818 20.9137 59.4113 21.1411 58.7039 21.5958C58.0218 22.0253 57.466 22.8211 57.0365 23.9832C56.6323 25.12 56.4302 26.7621 56.4302 28.9095C56.4302 31.0316 56.6197 32.6737 56.9986 33.8358C57.4029 34.9979 57.946 35.8063 58.6281 36.2611C59.3355 36.6906 60.1313 36.9053 61.0155 36.9053Z" fill="#453929"/>
<path d="M86.3845 38.4211C84.8687 38.4211 83.694 38.1558 82.8603 37.6253C82.0266 37.0948 81.4456 36.3874 81.1172 35.5032C80.7887 34.5937 80.6245 33.5706 80.6245 32.4337V21.2548H78.3508C77.694 21.2548 77.3656 20.9642 77.3656 20.3832C77.3656 20.0548 77.5298 19.8274 77.8582 19.7011C78.1866 19.5748 78.6035 19.3979 79.1087 19.1706C79.6393 18.9179 80.1951 18.4758 80.7761 17.8442C81.3824 17.2127 81.7993 16.6569 82.0266 16.1769C82.2793 15.6969 82.494 15.3179 82.6708 15.04C82.873 14.7621 83.1635 14.6232 83.5424 14.6232C83.9972 14.6232 84.2751 14.7874 84.3761 15.1158C84.5024 15.4442 84.5656 15.9748 84.5656 16.7074V19.3979H89.1508C89.4287 19.3979 89.6435 19.499 89.7951 19.7011C89.9719 19.8779 90.0603 20.0927 90.0603 20.3453C90.0603 20.5727 89.9719 20.7874 89.7951 20.9895C89.6435 21.1663 89.4287 21.2548 89.1508 21.2548H84.5656V33.3053C84.5656 34.619 84.8056 35.5285 85.2856 36.0337C85.7908 36.5137 86.3087 36.7537 86.8393 36.7537C87.5972 36.7537 88.1782 36.5769 88.5824 36.2232C88.9866 35.8695 89.3024 35.4527 89.5298 34.9727C89.7824 34.4927 90.0224 34.0758 90.2498 33.7221C90.5024 33.3685 90.8435 33.1916 91.273 33.1916C91.9298 33.1916 92.2582 33.4948 92.2582 34.1011C92.2582 34.3032 92.1951 34.5558 92.0687 34.859C91.9424 35.1621 91.8161 35.3895 91.6898 35.5411C91.033 36.5263 90.2372 37.259 89.3024 37.739C88.3677 38.1937 87.3951 38.4211 86.3845 38.4211Z" fill="#453929"/>
<path d="M102.86 34.8211C102.027 36.059 101.067 36.9685 99.9804 37.5495C98.9194 38.1306 97.6562 38.4211 96.191 38.4211C94.271 38.4211 92.831 37.9537 91.871 37.019C90.9362 36.059 90.4689 34.8211 90.4689 33.3053C90.4689 32.4969 90.6078 31.7011 90.8857 30.9179C91.1636 30.1095 91.6562 29.3895 92.3636 28.7579C93.071 28.1263 94.0436 27.6211 95.2815 27.2421C96.5194 26.8632 98.0984 26.6737 100.018 26.6737H102.785V25.6127C102.785 23.8695 102.482 22.6569 101.875 21.9748C101.294 21.2674 100.334 20.9137 98.9952 20.9137C98.212 20.9137 97.5426 21.0779 96.9868 21.4063C96.4562 21.7348 96.0141 22.1011 95.6605 22.5053C95.2815 22.9095 94.9026 23.2379 94.5236 23.4906C94.1447 23.7179 93.7531 23.8316 93.3489 23.8316C92.8941 23.8316 92.5531 23.7053 92.3257 23.4527C92.1236 23.1748 92.0226 22.8716 92.0226 22.5432C92.0226 22.0127 92.2247 21.5958 92.6289 21.2927C93.0331 20.9642 93.5257 20.6737 94.1068 20.4211C94.9657 20.0674 95.9131 19.8148 96.9489 19.6632C98.0099 19.4863 98.9447 19.3979 99.7531 19.3979C101.623 19.3979 103.063 19.6632 104.073 20.1937C105.084 20.699 105.778 21.4569 106.157 22.4674C106.562 23.4779 106.764 24.7411 106.764 26.2569V36.64C106.764 37.1958 106.663 37.6379 106.46 37.9663C106.284 38.2695 105.892 38.4211 105.286 38.4211C104.452 38.4211 103.858 38.1432 103.505 37.5874C103.151 37.0063 102.974 36.0969 102.974 34.859L102.86 34.8211ZM100.625 28.2653C99.0078 28.2653 97.7447 28.4674 96.8352 28.8716C95.9257 29.2758 95.2941 29.819 94.9404 30.5011C94.5868 31.1832 94.4099 31.9411 94.4099 32.7748C94.4099 33.9369 94.7131 34.7453 95.3194 35.2C95.9257 35.6548 96.7215 35.8821 97.7068 35.8821C98.3383 35.8821 99.0457 35.7306 99.8289 35.4274C100.637 35.099 101.332 34.6063 101.913 33.9495C102.519 33.2927 102.823 32.459 102.823 31.4485V28.2653H100.625Z" fill="#453929"/>
<path d="M69.2707 37.2858V25.3354C69.727 20.8126 74.4364 19.1543 80.7315 19.4813C80.8647 24.2076 78.2463 27.1626 73.4566 27.1626V37.2858C73.4566 37.8671 72.9853 38.3384 72.404 38.3384L70.3234 38.3384C69.742 38.3384 69.2707 37.8671 69.2707 37.2858Z" fill="#709A4F"/>
</svg>
