<svg width="224" height="95" viewBox="0 0 224 95" fill="none" xmlns="http://www.w3.org/2000/svg">
<path d="M28.0377 69.184C27.4137 70.864 26.6937 71.92 25.8777 72.352C25.0617 72.784 24.3177 73 23.6457 73C22.9737 73 22.4697 72.808 22.1337 72.424C21.8457 72.04 21.7017 71.584 21.7017 71.056C21.7017 70.48 21.8217 69.88 22.0617 69.256L38.9817 23.68C39.2217 23.104 39.7017 22.672 40.4217 22.384C41.1897 22.096 42.0297 21.952 42.9417 21.952C43.9017 21.952 44.8137 22.12 45.6777 22.456C46.5897 22.744 47.1417 23.224 47.3337 23.896L63.8217 69.544C63.8697 69.736 63.8937 69.928 63.8937 70.12C63.9417 70.264 63.9657 70.432 63.9657 70.624C63.9657 71.248 63.7497 71.8 63.3177 72.28C62.9337 72.76 62.2137 73 61.1577 73C60.7257 73 60.1497 72.928 59.4297 72.784C58.7577 72.592 58.0857 72.232 57.4137 71.704C56.7417 71.128 56.1897 70.288 55.7577 69.184L51.9417 59.32H31.7097L28.0377 69.184ZM42.1497 30.448H41.7177L32.8617 55.576H50.8617L42.1497 30.448Z" fill="black"/>
<path d="M95.0112 21.952C97.2192 21.952 98.3232 23.152 98.3232 25.552V69.4C98.3232 70.744 98.0592 71.68 97.5312 72.208C97.0512 72.736 96.2592 73 95.1552 73C92.0832 73 90.5472 71.152 90.5472 67.456V48.592H67.0752V68.32C67.0752 70.048 66.6912 71.272 65.9232 71.992C65.2032 72.664 64.0992 73 62.6112 73C60.4032 73 59.2992 71.8 59.2992 69.4V25.552C59.2992 24.208 59.5392 23.272 60.0192 22.744C60.5472 22.216 61.3632 21.952 62.4672 21.952C65.5392 21.952 67.0752 23.8 67.0752 27.496V44.632H90.5472V26.632C90.5472 24.904 90.9072 23.704 91.6272 23.032C92.3952 22.312 93.5232 21.952 95.0112 21.952Z" fill="black"/>
<path d="M114.105 73C109.017 73 104.985 71.536 102.009 68.608C99.0807 65.632 97.6167 61.072 97.6167 54.928C97.6167 50.704 98.3127 47.272 99.7047 44.632C101.097 41.992 103.017 40.048 105.465 38.8C107.961 37.504 110.841 36.856 114.105 36.856C119.049 36.856 123.033 38.296 126.057 41.176C129.081 44.056 130.593 48.64 130.593 54.928C130.593 61.072 129.129 65.632 126.201 68.608C123.273 71.536 119.241 73 114.105 73ZM114.105 70.12C115.833 70.12 117.345 69.712 118.641 68.896C119.937 68.08 120.945 66.568 121.665 64.36C122.433 62.152 122.817 59.008 122.817 54.928C122.817 50.848 122.433 47.728 121.665 45.568C120.897 43.36 119.841 41.848 118.497 41.032C117.201 40.168 115.737 39.736 114.105 39.736C112.521 39.736 111.057 40.168 109.713 41.032C108.417 41.848 107.361 43.36 106.545 45.568C105.777 47.728 105.393 50.848 105.393 54.928C105.393 58.96 105.753 62.08 106.473 64.288C107.241 66.496 108.273 68.032 109.569 68.896C110.913 69.712 112.425 70.12 114.105 70.12Z" fill="black"/>
<path d="M162.306 73C159.426 73 157.194 72.496 155.61 71.488C154.026 70.48 152.922 69.136 152.298 67.456C151.674 65.728 151.362 63.784 151.362 61.624V40.384H147.042C145.794 40.384 145.17 39.832 145.17 38.728C145.17 38.104 145.482 37.672 146.106 37.432C146.73 37.192 147.522 36.856 148.482 36.424C149.49 35.944 150.546 35.104 151.65 33.904C152.802 32.704 153.594 31.648 154.026 30.736C154.506 29.824 154.914 29.104 155.25 28.576C155.634 28.048 156.186 27.784 156.906 27.784C157.77 27.784 158.298 28.096 158.49 28.72C158.73 29.344 158.85 30.352 158.85 31.744V36.856H167.562C168.09 36.856 168.498 37.048 168.786 37.432C169.122 37.768 169.29 38.176 169.29 38.656C169.29 39.088 169.122 39.496 168.786 39.88C168.498 40.216 168.09 40.384 167.562 40.384H158.85V63.28C158.85 65.776 159.306 67.504 160.218 68.464C161.178 69.376 162.162 69.832 163.17 69.832C164.61 69.832 165.714 69.496 166.482 68.824C167.25 68.152 167.85 67.36 168.282 66.448C168.762 65.536 169.218 64.744 169.65 64.072C170.13 63.4 170.778 63.064 171.594 63.064C172.842 63.064 173.466 63.64 173.466 64.792C173.466 65.176 173.346 65.656 173.106 66.232C172.866 66.808 172.626 67.24 172.386 67.528C171.138 69.4 169.626 70.792 167.85 71.704C166.074 72.568 164.226 73 162.306 73Z" fill="black"/>
<path d="M193.61 66.16C192.026 68.512 190.202 70.24 188.138 71.344C186.122 72.448 183.722 73 180.938 73C177.29 73 174.554 72.112 172.73 70.336C170.954 68.512 170.066 66.16 170.066 63.28C170.066 61.744 170.33 60.232 170.858 58.744C171.386 57.208 172.322 55.84 173.666 54.64C175.01 53.44 176.858 52.48 179.21 51.76C181.562 51.04 184.562 50.68 188.21 50.68H193.466V48.664C193.466 45.352 192.89 43.048 191.738 41.752C190.634 40.408 188.81 39.736 186.266 39.736C184.778 39.736 183.506 40.048 182.45 40.672C181.442 41.296 180.602 41.992 179.93 42.76C179.21 43.528 178.49 44.152 177.77 44.632C177.05 45.064 176.306 45.28 175.538 45.28C174.674 45.28 174.026 45.04 173.594 44.56C173.21 44.032 173.018 43.456 173.018 42.832C173.018 41.824 173.402 41.032 174.17 40.456C174.938 39.832 175.874 39.28 176.978 38.8C178.61 38.128 180.41 37.648 182.378 37.36C184.394 37.024 186.17 36.856 187.706 36.856C191.258 36.856 193.994 37.36 195.914 38.368C197.834 39.328 199.154 40.768 199.874 42.688C200.642 44.608 201.026 47.008 201.026 49.888V69.616C201.026 70.672 200.834 71.512 200.45 72.136C200.114 72.712 199.37 73 198.218 73C196.634 73 195.506 72.472 194.834 71.416C194.162 70.312 193.826 68.584 193.826 66.232L193.61 66.16ZM189.362 53.704C186.29 53.704 183.89 54.088 182.162 54.856C180.434 55.624 179.234 56.656 178.562 57.952C177.89 59.248 177.554 60.688 177.554 62.272C177.554 64.48 178.13 66.016 179.282 66.88C180.434 67.744 181.946 68.176 183.818 68.176C185.018 68.176 186.362 67.888 187.85 67.312C189.386 66.688 190.706 65.752 191.81 64.504C192.962 63.256 193.538 61.672 193.538 59.752V53.704H189.362Z" fill="black"/>
<path d="M129.79 70.8429V48.1372C130.656 39.5439 139.604 36.3931 151.565 37.0144C151.818 45.9945 146.843 51.6088 137.743 51.6088V70.8429C137.743 71.9475 136.847 72.8429 135.743 72.8429L131.79 72.8429C130.685 72.8429 129.79 71.9475 129.79 70.8429Z" fill="#CED4DA"/>
</svg>
